<svg width="35" height="35" viewBox="0 0 35 35" fill="none" xmlns="http://www.w3.org/2000/svg">
<path d="M17.5 30.5887L16.0052 29.2397C13.4344 26.8792 11.3091 24.8429 9.62933 23.1308C7.94933 21.4187 6.61107 19.8882 5.61454 18.5392C4.61801 17.1903 3.91923 15.9689 3.51819 14.8752C3.11715 13.7814 2.91663 12.6755 2.91663 11.5575C2.91663 9.36631 3.65187 7.53634 5.12235 6.06756C6.59284 4.59902 8.40968 3.86475 10.5729 3.86475C11.9583 3.86475 13.2404 4.19287 14.4192 4.84912C15.598 5.50537 16.625 6.45329 17.5 7.69287C18.5208 6.38037 19.6024 5.41423 20.7448 4.79443C21.8871 4.17464 23.1145 3.86475 24.427 3.86475C26.5902 3.86475 28.4071 4.59902 29.8776 6.06756C31.348 7.53634 32.0833 9.36631 32.0833 11.5575C32.0833 12.6755 31.8828 13.7814 31.4817 14.8752C31.0807 15.9689 30.3819 17.1903 29.3854 18.5392C28.3888 19.8882 27.0506 21.4187 25.3706 23.1308C23.6908 24.8429 21.5655 26.8792 18.9948 29.2397L17.5 30.5887ZM17.5 27.7085C19.9607 25.4481 21.9855 23.5097 23.5746 21.8934C25.1637 20.2771 26.4262 18.8613 27.3619 17.646C28.2977 16.4307 28.954 15.3474 29.3307 14.3961C29.7074 13.445 29.8958 12.5005 29.8958 11.5626C29.8958 9.95499 29.3854 8.63471 28.3645 7.60173C27.3437 6.56874 26.0339 6.05225 24.4351 6.05225C23.1828 6.05225 22.0238 6.43506 20.958 7.20068C19.8922 7.96631 19.0312 9.04183 18.375 10.4272H16.5885C15.9566 9.06614 15.1077 7.99669 14.0419 7.21891C12.9761 6.44114 11.8171 6.05225 10.5649 6.05225C8.96604 6.05225 7.65621 6.56874 6.63538 7.60173C5.61454 8.63471 5.10413 9.95718 5.10413 11.5691C5.10413 12.5093 5.29249 13.4594 5.66923 14.4194C6.04597 15.3795 6.70222 16.4733 7.63798 17.7007C8.57374 18.9281 9.84371 20.3439 11.4479 21.9481C13.052 23.5522 15.0694 25.4724 17.5 27.7085Z" fill="#8B1A10"/>
</svg>
